<svg width="33" height="32" viewBox="0 0 33 32" fill="none" xmlns="http://www.w3.org/2000/svg">
<path d="M33 16.0956C32.9994 13.0192 32.0953 10.0073 30.3948 7.41664C28.6943 4.82594 26.2686 2.76488 23.4049 1.47745C20.5412 0.190031 17.3593 -0.269845 14.236 0.152271C11.1128 0.574387 8.17885 1.86082 5.78162 3.85927C3.3844 5.85772 1.62424 8.4845 0.709541 11.4286C-0.205161 14.3728 -0.236106 17.511 0.620368 20.4718C1.47684 23.4326 3.18487 26.0919 5.54225 28.135C7.89962 30.1781 10.8076 31.5193 13.922 32V20.7495H9.73033V16.0956H13.922V12.549C13.922 8.51443 16.3837 6.28609 20.1541 6.28609C21.3916 6.30282 22.6261 6.40779 23.8478 6.60016V10.5598H21.7668C19.718 10.5598 19.0783 11.8009 19.0783 13.0741V16.096H23.6544L22.9224 20.7495H19.0773V32C22.9585 31.4 26.4929 29.4686 29.0451 26.5532C31.5972 23.6378 32.9996 19.9297 33 16.0956Z" fill="#E25973"/>
</svg>
