<svg width="132" height="134" viewBox="0 0 132 134" fill="none" xmlns="http://www.w3.org/2000/svg">
<path d="M47.0783 15.1143C50.0255 21.0125 55.3867 19.0592 57.3649 17.0868C56.2162 14.567 55.7345 11.1161 54.2156 9.05127L54.2617 7.43928C57.427 14.1456 65.6737 15.9034 68.8387 6.43562C65.6737 8.80256 63.7444 11.4618 60.5302 9.19704C59.2082 8.26555 57.2656 3.82073 56.5738 2.09623C52.6174 1.70173 53.0129 5.68295 52.6172 7.67359C51.6354 7.20187 50.3637 7.11967 48.6608 7.61904C45.4957 9.19701 46.3746 13.3672 47.0783 15.1143Z" fill="#E25973"/>
<path d="M48.3472 38.0543C48.5609 38.3022 48.2581 42.0805 48.0799 43.9386C50.2415 44.9283 55.8702 46.6108 61.0929 45.4232C59.6006 42.1995 68.9683 33.541 73.8386 29.6147C78.1988 32.2367 81.1003 32.96 85.3489 33.1666C87.8358 36.2663 94.0533 37.5062 99.9599 41.3936C101.514 41.8458 101.639 42.7137 105.866 42.4657C106.799 42.411 108.664 42.1557 110.53 39.366C107.421 38.4361 104.312 40.2959 101.514 39.366C90.3228 30.3769 94.3641 32.5467 87.2142 29.137C80.6858 22.9376 74.1495 18.7657 72.2842 17.8358C70.419 16.9059 61.7146 20.0056 61.0929 20.3195C60.5955 20.5707 58.6059 18.7684 57.6733 17.8358C56.9206 18.7139 56.1165 19.0751 55.8085 19.146C55.0624 23.8575 51.9744 25.0354 50.5237 25.0354C45.5497 25.6553 45.5494 29.9219 45.5494 30.615C45.5494 31.8547 48.0799 37.7443 48.3472 38.0543Z" fill="#E25973"/>
<path d="M28.5659 107.998C28.9306 100.255 23.9434 98.4722 21.4042 98.5485C21.5799 92.7541 20.75 73.7817 17.2683 68.8594C33.4336 64.8298 42.262 63.4814 45.2467 57.034C42.4052 67.573 64.3963 96.7722 72.6033 100.74C81.3078 105.596 99.6492 115.866 103.38 118.098C108.043 120.888 114.26 120.268 116.125 120.268C117.991 120.268 120.167 123.368 120.788 122.438C121.41 121.508 119.234 117.168 118.301 117.478C117.555 117.726 115.296 116.962 114.26 116.548C110.778 112.581 106.592 114.068 104.934 115.308L104.623 114.875C94.6752 101.881 83.0694 96.111 78.5099 94.8504C62.7753 91.1307 70.6345 60.9811 61.412 47.115C56.1893 48.3026 50.5606 46.6202 48.3991 45.6305C43.736 42.2208 19.4559 54.2443 11.6974 61.4389C8.60147 64.3098 7.71456 66.5863 8.3656 68.8594C8.25719 69.4699 18.5567 102.138 19.4559 104.186C20.3551 106.233 25.0169 110.204 26.3307 111.695C27.3817 112.888 28.0759 114.312 28.2917 114.875C28.9741 118.143 29.2802 118.197 29.8924 118.305C32.6123 117.211 32.3094 111.806 31.1391 111.285C30.203 110.868 29.0336 108.92 28.5659 107.998Z" fill="#E25973"/>
<path d="M46.1789 26.0372C44.3137 27.587 44.3137 30.0668 44.6246 31.3066C36.4824 31.0456 29.7985 23.5649 29.5173 22.7804C29.2361 21.9958 29.4962 18.9474 30.9789 16.6683C32.1651 14.8449 37.1257 9.91561 39.4578 7.67888C36.3186 4.14138 30.6354 -1.86014 35.9314 0.859396C40.9188 3.4205 41.7969 6.71978 41.7841 7.75347C40.5197 9.44656 37.9379 13.2508 37.7255 14.9228C37.5132 16.5949 35.8151 19.9712 34.9925 21.4504C35.7336 21.9456 37.4347 23.1034 39.6506 23.2474C41.8666 23.3915 45.0664 25.1347 46.1789 26.0372Z" fill="#E25973"/>
</svg>
