<svg width="40" height="36" viewBox="0 0 40 36" fill="none" xmlns="http://www.w3.org/2000/svg">
<path d="M14.5 16.749H25.499C26.2282 16.749 26.9277 17.0391 27.4434 17.5547C27.959 18.0703 28.249 18.7698 28.249 19.499V26.999C28.249 29.1868 27.38 31.2849 25.833 32.832C24.2859 34.3791 22.187 35.249 19.999 35.249C17.8112 35.2489 15.713 34.3791 14.166 32.832C12.619 31.2849 11.75 29.1869 11.75 26.999V19.499C11.7501 18.7699 12.0391 18.0703 12.5547 17.5547C13.0704 17.039 13.7707 16.749 14.5 16.749ZM8.27148 18.9854C8.26382 19.0802 8.2574 19.1756 8.25391 19.2715L8.25 19.4971V26.998C8.24825 28.7474 8.63734 30.4754 9.38965 32.0547C9.93359 33.1965 10.6583 34.239 11.5312 35.1455C10.8676 35.2509 10.1923 35.2775 9.51953 35.2188C8.39984 35.1209 7.3116 34.7951 6.32227 34.2617C5.33296 33.7283 4.46271 32.9988 3.76562 32.1172C3.15558 31.3456 2.68958 30.4718 2.3877 29.5381L2.26855 29.1348L0.844727 23.8232V23.8223L0.787109 23.5586C0.743062 23.2923 0.738198 23.0205 0.773438 22.752C0.82045 22.3938 0.937659 22.0482 1.11816 21.7354C1.29867 21.4225 1.53968 21.1486 1.82617 20.9287C2.04113 20.7637 2.27857 20.6313 2.53125 20.5361L2.78809 20.4541L8.27148 18.9854ZM6 4.75C7.39217 4.75005 8.72745 5.30277 9.71191 6.28711C10.6964 7.27163 11.25 8.60767 11.25 10C11.2499 11.3922 10.6964 12.7275 9.71191 13.7119C8.72743 14.6963 7.39222 15.249 6 15.249L5.73926 15.2432C4.44192 15.1787 3.211 14.6347 2.28809 13.7119C1.30364 12.7275 0.750098 11.3922 0.75 10C0.75 8.60767 1.30355 7.27163 2.28809 6.28711C3.27258 5.30284 4.60785 4.75 6 4.75ZM33.999 4.75C35.3912 4.75001 36.7264 5.30278 37.7109 6.28711C38.6955 7.27163 39.249 8.60767 39.249 10L39.2422 10.2598C39.1779 11.5574 38.634 12.7889 37.7109 13.7119C36.7264 14.6963 35.3913 15.249 33.999 15.249C32.6068 15.249 31.2716 14.6963 30.2871 13.7119C29.3027 12.7275 28.7491 11.3922 28.749 10L28.7559 9.73926C28.8202 8.44173 29.3641 7.21009 30.2871 6.28711C31.2716 5.30279 32.6068 4.75 33.999 4.75ZM19.999 0.75C21.5239 0.75 22.9871 1.35536 24.0654 2.43359C25.1437 3.51188 25.749 4.97507 25.749 6.5L25.7422 6.78516C25.6716 8.2061 25.0762 9.55462 24.0654 10.5654C22.9871 11.6437 21.524 12.25 19.999 12.25C18.4742 12.2499 17.0118 11.6436 15.9336 10.5654C14.8554 9.4872 14.2501 8.02482 14.25 6.5C14.25 4.97507 14.8553 3.51188 15.9336 2.43359C17.0118 1.35552 18.4743 0.750103 19.999 0.75ZM31.749 19.499C31.7486 19.3254 31.7403 19.1535 31.7266 18.9834L37.2129 20.4541C37.917 20.6431 38.5174 21.104 38.8818 21.7354C39.2005 22.2877 39.3162 22.9309 39.2139 23.5547L39.1562 23.8213L37.7324 29.1348C37.4414 30.2205 36.9317 31.2356 36.2344 32.1172C35.5371 32.9987 34.6671 33.7286 33.6777 34.2617C32.6883 34.7949 31.6001 35.1202 30.4805 35.2178C29.8072 35.2764 29.1309 35.2493 28.4668 35.1436C29.3394 34.2375 30.0645 33.1959 30.6084 32.0547C31.3606 30.4763 31.7501 28.7494 31.749 27.001V19.499Z" stroke="#e25973" stroke-width="1.5"/>
</svg>
