<svg width="40" height="36" viewBox="0 0 40 36" fill="none" xmlns="http://www.w3.org/2000/svg">
<path d="M3.53335 21.5835L3.53336 18.5818C3.53335 12.8056 4.325 1.47222 20 1C29.5 1.47222 36.4557 4.86349 36.118 20.3011V21.1547M3.53335 21.5835L3.53336 32.3041L3.53336 32.737C1.84449 32.7403 1.14076 31.5921 1 31.0177V22.87C1.67556 21.4978 2.97038 21.4406 3.53335 21.5835ZM36.118 21.1547V32.737C38.2034 33.0833 39 31.4465 39 30.5888V22.87C38.6622 21.8408 36.9379 21.2977 36.118 21.1547ZM6.27778 20.2971C6.7 19.0065 9.23336 18.5818 10.0778 20.3011C10.0778 23.4445 10.0778 30.4173 10.0778 33.1618C10.0778 35.9062 6.27775 35.3018 6.27778 33.1577V20.2971ZM29.5 20.293C29.9222 19.0024 32.4556 18.5777 33.3 20.2971V33.1577C33.3 35.9022 29.4999 35.2977 29.5 33.1536V20.293Z" stroke="#D55C73" stroke-width="1.5"/>
</svg>
