<svg width="32" height="32" viewBox="0 0 32 32" fill="none" xmlns="http://www.w3.org/2000/svg">
<path d="M16.0036 7.79576C14.3813 7.79583 12.7955 8.27705 11.4466 9.17859C10.0978 10.0801 9.04652 11.3615 8.42575 12.8606C7.80498 14.3597 7.64259 16.0093 7.95912 17.6008C8.27566 19.1922 9.05689 20.654 10.204 21.8014C11.3512 22.9487 12.8127 23.7301 14.4038 24.0466C15.9949 24.3632 17.6441 24.2007 19.1429 23.5797C20.6417 22.9587 21.9227 21.9072 22.824 20.558C23.7253 19.2088 24.2063 17.6226 24.2063 16C24.208 14.9221 23.997 13.8545 23.5854 12.8583C23.1737 11.8621 22.5696 10.957 21.8075 10.1948C21.0455 9.43265 20.1406 8.8284 19.1446 8.41672C18.1486 8.00504 17.0812 7.79402 16.0036 7.79576ZM16.0036 21.3341C14.9488 21.3341 13.9177 21.0213 13.0408 20.4351C12.1638 19.849 11.4802 19.0159 11.0766 18.0413C10.673 17.0666 10.5673 15.9941 10.7731 14.9594C10.9789 13.9247 11.4868 12.9742 12.2326 12.2282C12.9784 11.4822 13.9287 10.9742 14.9632 10.7684C15.9976 10.5626 17.0699 10.6682 18.0444 11.0719C19.0188 11.4757 19.8517 12.1593 20.4377 13.0365C21.0237 13.9137 21.3365 14.945 21.3365 16C21.334 17.4139 20.7713 18.7692 19.7717 19.769C18.7722 20.7688 17.4172 21.3316 16.0036 21.3341ZM26.4546 7.46003C26.4546 7.83853 26.3424 8.20854 26.1322 8.52326C25.9219 8.83798 25.6231 9.08327 25.2735 9.22812C24.9239 9.37297 24.5392 9.41087 24.168 9.33702C23.7969 9.26318 23.4559 9.08091 23.1884 8.81327C22.9208 8.54562 22.7385 8.20462 22.6647 7.83338C22.5909 7.46215 22.6288 7.07735 22.7736 6.72766C22.9184 6.37796 23.1636 6.07907 23.4783 5.86879C23.7929 5.6585 24.1629 5.54626 24.5413 5.54626C24.7927 5.54568 25.0418 5.59478 25.2742 5.69075C25.5066 5.78672 25.7177 5.92767 25.8955 6.10549C26.0733 6.28332 26.2142 6.49452 26.3102 6.72697C26.4061 6.95942 26.4552 7.20854 26.4546 7.46003ZM31.8875 9.40225C31.7662 6.8387 31.1806 4.5682 29.3031 2.69745C27.4328 0.826709 25.1625 0.241296 22.5998 0.11256C19.9579 -0.0375199 12.0414 -0.0375199 9.40016 0.11256C6.84362 0.233843 4.5743 0.819256 2.69685 2.69C0.819412 4.56074 0.240904 6.83057 0.112535 9.39514C-0.0375116 12.0376 -0.0375116 19.9559 0.112535 22.5977C0.233791 25.1613 0.819412 27.4318 2.69685 29.3025C4.5743 31.1733 6.83752 31.7587 9.40016 31.8874C12.0421 32.0375 19.9586 32.0375 22.5998 31.8874C25.1628 31.7662 27.4328 31.1804 29.3031 29.3025C31.1735 27.4318 31.7588 25.161 31.8875 22.5977C32.0375 19.9553 32.0375 12.0441 31.8875 9.40225ZM28.4754 25.4327C28.2039 26.1211 27.7938 26.7463 27.2706 27.2696C26.7475 27.7929 26.1224 28.203 25.4341 28.4746C23.3281 29.31 18.3308 29.1183 16.0036 29.1183C13.6763 29.1183 8.67195 29.3039 6.57299 28.4746C5.88474 28.203 5.25963 27.7929 4.73647 27.2696C4.2133 26.7463 3.80325 26.1211 3.53176 25.4327C2.69651 23.3261 2.88822 18.3278 2.88822 16C2.88822 13.6722 2.70261 8.66676 3.53176 6.56734C3.80321 5.87897 4.21321 5.25374 4.73632 4.73046C5.25942 4.20718 5.88446 3.79702 6.57265 3.52543C8.67872 2.69 13.676 2.88175 16.0032 2.88175C18.3305 2.88175 23.3348 2.6961 25.4338 3.52543C26.122 3.79698 26.7471 4.20712 27.2703 4.7304C27.7935 5.25368 28.2035 5.87893 28.475 6.56734C29.3103 8.67388 29.1185 13.6722 29.1185 16C29.1185 18.3278 29.3106 23.3332 28.4754 25.4327Z" fill="#E25973"/>
</svg>
