<svg width="14" height="10" viewBox="0 0 14 10" fill="none" xmlns="http://www.w3.org/2000/svg">
<path d="M13.9169 5.2775L11.063 9.555C10.9719 9.69164 10.8485 9.80371 10.7037 9.88132C10.5589 9.95894 10.3973 9.9997 10.233 10H0.500335C0.409791 10.0001 0.320929 9.97553 0.243236 9.92903C0.165543 9.88254 0.101934 9.81582 0.059198 9.73599C0.0164623 9.65617 -0.00379572 9.56624 0.000585911 9.4758C0.00496754 9.38537 0.0338244 9.29782 0.0840767 9.2225L2.89976 5L0.0872017 0.7775C0.0370946 0.702402 0.00825519 0.61514 0.00374443 0.524974C-0.000766342 0.434808 0.0192198 0.345103 0.0615817 0.26538C0.103943 0.185657 0.1671 0.11889 0.244349 0.0721662C0.321598 0.0254423 0.410056 0.000504651 0.500335 0H10.233C10.3973 0.000304115 10.5589 0.0410635 10.7037 0.118676C10.8485 0.196289 10.9719 0.308365 11.063 0.445L13.915 4.7225C13.9701 4.80448 13.9997 4.90094 14 4.99972C14.0003 5.09849 13.9714 5.19515 13.9169 5.2775Z" fill="#E25973"/>
</svg>
