<svg width="144" height="144" viewBox="0 0 144 144" fill="none" xmlns="http://www.w3.org/2000/svg">
<circle cx="72" cy="72" r="72" fill="#FFF7F7"/>
<path d="M72 33.5C80.6141 33.5 88.176 36.4277 94.7471 42.3271C101.228 48.1455 104.505 55.9626 104.5 65.9453L104.493 66.4922C104.425 69.2359 103.847 72.1416 102.732 75.2168C101.539 78.5089 99.7886 81.9619 97.4629 85.5762C95.1401 89.1859 92.2335 92.9329 88.7354 96.8174C85.2343 100.705 81.1993 104.704 76.6279 108.814C75.9987 109.37 75.2872 109.785 74.4824 110.065C73.6398 110.359 72.8142 110.5 72 110.5C71.1858 110.5 70.3602 110.359 69.5176 110.065C68.7126 109.785 68.0004 109.37 67.3711 108.814H67.3721C62.8007 104.704 58.7657 100.705 55.2646 96.8174C51.7666 92.933 48.8618 89.1856 46.542 85.5762C44.219 81.9617 42.4675 78.5086 41.2715 75.2158C40.0801 71.9359 39.5 68.8484 39.5 65.9453C39.5001 55.9623 42.7797 48.1456 49.2578 42.3271C55.826 36.4279 63.3859 33.5 72 33.5ZM72.0039 55.3379C69.2702 55.3315 66.8897 56.2951 64.9482 58.2021C63.0128 60.1035 62.01 62.4325 62 65.1123C61.99 67.8011 62.9964 70.137 64.9521 72.042C66.9052 73.9444 69.2812 74.9077 72 74.8965V74.8975L72.0029 74.8965C72.0042 74.8965 72.0055 74.8975 72.0068 74.8975L72.0059 74.8965C74.7287 74.8951 77.1044 73.9355 79.0508 72.043C81.0012 70.1464 82.0033 67.8102 82 65.1162C81.9967 62.4251 80.996 60.0921 79.0518 58.1982C77.1089 56.3058 74.7319 55.3444 72.0039 55.3379Z" stroke="#E25973" stroke-width="3"/>
</svg>
