<svg width="144" height="144" viewBox="0 0 144 144" fill="none" xmlns="http://www.w3.org/2000/svg">
<circle cx="72" cy="72" r="72" fill="#FFF7F7"/>
<path d="M69.0976 34.9167C71.5402 34.9167 73.5203 32.9207 73.5203 30.4584C73.5203 27.9961 71.5402 26 69.0976 26C66.6549 26 64.6748 27.9961 64.6748 30.4584C64.6748 32.9207 66.6549 34.9167 69.0976 34.9167Z" stroke="#E25973" stroke-width="3" stroke-miterlimit="10"/>
<path d="M38 36.2632L44.9231 43.0993C46.0819 44.2437 48.3316 44.9184 49.9208 44.5974L58.8813 42.7902C60.8103 42.4226 62.7563 42.1523 64.712 41.9803L77.998 40.9489C79.6153 40.8241 82.2439 40.9534 83.842 41.2387L106 45.1799M61.7724 48.1522L63.2466 49.6383C64.0575 50.4557 64.9803 52.4352 65.3002 54.0372L67.09 63.0728C67.4099 64.6734 67.146 67.2147 66.5091 68.7171L59.9841 84.0598C59.3457 85.5608 59.244 88.059 59.7571 89.6105L63.7877 101.804C64.3007 103.357 65.716 104.625 66.9322 104.625C68.1485 104.625 68.9063 103.308 68.6173 101.7L66.7214 91.2022C66.4325 89.5942 66.8394 87.1079 67.6266 85.6797L72.1334 77.5001C72.9221 76.0734 74.2298 74.9024 75.0407 74.9024C75.8515 74.9024 76.5149 76.2399 76.5149 77.8746V91.2497C76.5149 92.8844 76.4648 95.5595 76.4043 97.1927L75.7409 115.029C75.682 116.664 76.7257 118 78.0643 118C79.4015 118 80.6738 116.674 80.892 115.054L83.4896 95.6813C83.7078 94.0615 83.9805 91.4013 84.097 89.771L85.1496 74.8949C85.2646 73.2647 85.1305 70.6119 84.8474 69.0025L80.9377 46.666" stroke="#E25973" stroke-width="3" stroke-miterlimit="10" stroke-linecap="round" stroke-linejoin="round"/>
</svg>
