<svg width="144" height="144" viewBox="0 0 144 144" fill="none" xmlns="http://www.w3.org/2000/svg">
<circle cx="72" cy="72" r="72" fill="#FFF7F7"/>
<path d="M38 57.5143V102.314C38 103.419 38.8954 104.314 40 104.314H67.1461M38 57.5143V43.9143C38 42.8097 38.8954 41.9143 40 41.9143H49.3333M38 57.5143H101.467M101.467 57.5143V43.9143C101.467 42.8097 100.571 41.9143 99.4667 41.9143H87.8667M101.467 57.5143V75.3407M49.3333 41.9143V33M49.3333 41.9143H87.8667M87.8667 41.9143V33M82.2 77.5714V87.4791C82.2 88.2475 82.6026 88.9617 83.2653 89.3689L91.2667 94.2857M67.1461 104.314C71.2599 108.44 76.9926 111 83.3333 111C95.8518 111 106 101.022 106 88.7143C106 83.6963 104.313 79.0657 101.467 75.3407M67.1461 104.314C63.1381 100.294 60.6667 94.7882 60.6667 88.7143C60.6667 76.4062 70.8149 66.4286 83.3333 66.4286C90.748 66.4286 97.3312 69.929 101.467 75.3407" stroke="#E25973" stroke-width="3" stroke-linecap="round"/>
</svg>
