<svg width="144" height="144" viewBox="0 0 144 144" fill="none" xmlns="http://www.w3.org/2000/svg">
<circle cx="72" cy="72" r="72" fill="#FFF7F7"/>
<g clip-path="url(#clip0_2941_202)">
<path d="M66.6036 103.918L103.258 67.1757C103.632 66.8007 103.842 66.2927 103.842 65.7631V48.7377M97.7701 62.693V46.8375C97.7725 46.0794 97.6255 45.3284 97.3375 44.6274C97.0495 43.9264 96.6263 43.2893 96.0921 42.7528C95.5579 42.2162 94.9232 41.7907 94.2245 41.5006C93.5258 41.2105 92.7768 41.0617 92.0206 41.0625H76.2122C75.1757 41.0646 74.1817 41.4764 73.4461 42.2085L41.8423 73.8795C40.7644 74.9634 40.1592 76.4314 40.1592 77.9619C40.1592 79.4924 40.7644 80.9604 41.8423 82.0444L56.8881 97.1264C57.969 98.2071 59.4334 98.814 60.9601 98.814C62.4867 98.814 63.9511 98.2071 65.0321 97.1264L96.6269 65.4657C97.3574 64.7285 97.7682 63.7321 97.7701 62.693ZM85.4249 57.5625C84.611 57.5625 83.8154 57.3206 83.1386 56.8673C82.4619 56.4141 81.9345 55.7698 81.623 55.0161C81.3116 54.2623 81.2301 53.4329 81.3888 52.6328C81.5476 51.8326 81.9396 51.0976 82.5151 50.5207C83.0906 49.9438 83.8238 49.5509 84.622 49.3918C85.4203 49.2326 86.2477 49.3143 86.9996 49.6265C87.7516 49.9387 88.3943 50.4674 88.8464 51.1458C89.2986 51.8241 89.5399 52.6217 89.5399 53.4375C89.5399 54.5315 89.1064 55.5807 88.3347 56.3543C87.5629 57.1279 86.5162 57.5625 85.4249 57.5625Z" stroke="#E25973" stroke-width="3" stroke-linecap="round"/>
</g>
<defs>
<clipPath id="clip0_2941_202">
<rect width="68" height="66" fill="white" transform="translate(38 39)"/>
</clipPath>
</defs>
</svg>
