<svg width="42" height="38" viewBox="0 0 42 38" fill="none" xmlns="http://www.w3.org/2000/svg">
<path d="M3.66668 22.7943L3.66669 19.616C3.66668 13.5 4.5 1.5 21 1C31 1.5 38.3218 5.09075 37.9663 21.4365V22.3403M3.66668 22.7943L3.66669 34.1455L3.66669 34.6039C1.88894 34.6074 1.14817 33.3917 1 32.7834V24.1565C1.71111 22.7035 3.07408 22.643 3.66668 22.7943ZM37.9663 22.3403V34.6039C40.1615 34.9706 41 33.2374 41 32.3293V24.1565C40.6444 23.0668 38.8294 22.4916 37.9663 22.3403ZM6.55556 21.4322C7 20.0657 9.66669 19.616 10.5556 21.4365C10.5556 24.7647 10.5556 32.1477 10.5556 35.0536C10.5556 37.9595 6.55553 37.3196 6.55556 35.0493V21.4322ZM31 21.4279C31.4444 20.0614 34.1111 19.6117 35 21.4322V35.0493C35 37.9552 30.9999 37.3152 31 35.045V21.4279Z" stroke="#e25973" stroke-width="1.5"/>
</svg>
