<svg width="42" height="36" viewBox="0 0 42 36" fill="none" xmlns="http://www.w3.org/2000/svg">
<path d="M9.45718 26.5C9.45718 20.1996 13.1572 12.6875 23.2002 12.6875M1 26.9186C1 12.5748 9.9858 4.07481 23.2002 4.60606M32.5428 26.5C32.5428 31.1944 28.7563 35 24.0855 35C19.4147 35 15.6283 31.1944 15.6283 26.5C15.6283 21.8056 19.4147 18 24.0855 18C25.626 18 27.0702 18.4139 28.3141 19.1371V3.125C28.3141 2.41667 28.737 1 30.4285 1C32.1199 1 36.7714 1 38.8857 1C39.5905 1 41 1.31875 41 2.59375C41 3.86875 41 4.89583 41 5.25C41 6.3125 41 7.375 38.8857 7.375H32.5428V26.5Z" stroke="#e25973" stroke-width="1.5" stroke-linecap="round" stroke-linejoin="round"/>
</svg>
