<svg xmlns="http://www.w3.org/2000/svg" width="94.478" height="94.457" viewBox="0 0 94.478 94.457">
  <path id="Icon_awesome-instagram" data-name="Icon awesome-instagram" d="M47.244,25.249A24.217,24.217,0,1,0,71.462,49.466,24.179,24.179,0,0,0,47.244,25.249Zm0,39.962A15.745,15.745,0,1,1,62.989,49.466,15.773,15.773,0,0,1,47.244,65.211ZM78.1,24.258a5.649,5.649,0,1,1-5.649-5.649A5.636,5.636,0,0,1,78.1,24.258Zm16.04,5.733c-.358-7.567-2.087-14.269-7.63-19.791-5.522-5.522-12.225-7.25-19.791-7.63-7.8-.443-31.173-.443-38.971,0C20.2,2.928,13.5,4.656,7.957,10.178S.706,22.4.327,29.97c-.443,7.8-.443,31.173,0,38.971.358,7.567,2.087,14.269,7.63,19.791s12.225,7.25,19.791,7.63c7.8.443,31.173.443,38.971,0,7.567-.358,14.269-2.087,19.791-7.63,5.522-5.522,7.25-12.225,7.63-19.791.443-7.8.443-31.152,0-38.95ZM84.066,77.309a15.94,15.94,0,0,1-8.979,8.979c-6.218,2.466-20.972,1.9-27.843,1.9s-21.646.548-27.843-1.9a15.94,15.94,0,0,1-8.979-8.979c-2.466-6.218-1.9-20.972-1.9-27.843s-.548-21.646,1.9-27.843A15.94,15.94,0,0,1,19.4,12.644c6.218-2.466,20.972-1.9,27.843-1.9s21.646-.548,27.843,1.9a15.94,15.94,0,0,1,8.979,8.979c2.466,6.218,1.9,20.972,1.9,27.843S86.532,71.112,84.066,77.309Z" transform="translate(0.005 -2.238)" fill="#fafbf9"/>
</svg>
