<svg width="42" height="64" viewBox="0 0 42 64" fill="none" xmlns="http://www.w3.org/2000/svg">
<path d="M29.5195 34.7749C29.3032 34.1926 29.0101 33.3586 28.7152 32.3376C28.4042 31.2616 28.2023 30.563 28.1344 29.9455C28.0539 29.2098 28.0593 27.6401 29.5195 25.5549C29.5919 25.5242 29.6991 25.48 29.8322 25.4321C30.8527 25.0638 31.7035 25.0765 31.9769 25.0711C32.7562 25.0566 34.7677 24.7912 35.5067 23.6719C36.252 22.5417 35.5031 20.8411 35.2833 20.3771C34.2771 18.9662 33.6802 17.7341 33.3173 16.8567C33.0385 16.1824 32.6042 15.0044 31.6516 13.6801C31.1485 12.9806 30.8358 12.763 30.5025 12.5689C30.1665 12.3731 29.4846 12.3911 28.1344 12.4335C27.3399 12.4588 26.9414 12.503 26.3471 12.3433C25.9566 12.2386 25.6519 12.0914 25.4535 11.9822C25.8226 11.4586 25.928 11.2303 25.945 11.1247C25.9513 11.0876 25.97 10.9522 26.0085 10.7997C26.0344 10.6932 26.0344 10.7329 26.0344 10.4928C26.0344 10.4928 26.3025 10.4928 26.4812 10.0414C26.6599 9.5901 26.4812 7.87501 26.4812 7.87501C26.4812 7.87501 26.4812 7.6042 26.1237 7.42367C26.0603 7.00663 25.9486 6.49571 25.7439 5.93424C25.5447 5.38632 25.3096 4.93407 25.0961 4.58022C24.9486 4.38073 24.7386 4.14784 24.4482 3.93752C23.6591 3.36522 22.8066 3.34897 22.4599 3.36161H21.745C21.7504 3.31737 21.7522 3.25058 21.7253 3.17656C21.6565 2.98429 21.4599 2.91929 21.4322 2.91027C21.3634 2.89492 21.2848 2.88228 21.1981 2.87596C21.0247 2.86423 20.8755 2.88499 20.762 2.91027C20.762 2.91027 19.1535 2.09785 18.3493 3.18107C17.545 4.26429 17.2769 3.81295 16.9195 5.61831C16.9195 5.61831 16.2939 6.15991 15.7578 6.97233C15.7578 6.97233 15.579 7.51393 15.2216 8.23608C15.2216 8.23608 14.9535 10.3122 14.328 10.7636C14.328 10.7636 14.8642 10.583 15.1322 10.0414C15.1322 10.0414 15.0429 12.2981 13.5237 13.2008L15.9365 12.2079C15.7676 12.8885 15.453 13.2794 15.1984 13.5059C15.1769 13.5258 15.1546 13.5438 15.1322 13.5619C15.9365 13.171 16.7407 12.7793 17.545 12.3884C17.0088 12.7495 17.1876 13.2911 17.1876 13.2911C17.1876 13.2911 17.1876 12.8397 18.3493 12.4787C19.511 12.1176 19.779 10.8538 19.779 10.8538C19.779 10.8538 19.779 10.4928 20.0471 10.4025C20.0471 10.4025 20.4939 11.8946 20.1812 12.6375C19.8362 12.8704 19.4189 13.1142 18.9301 13.3362C18.1553 13.6865 17.4422 13.8697 16.8748 13.9681C16.5263 14.0611 16.1679 14.1793 15.8025 14.3292C13.3084 15.3519 11.8133 17.3116 11.0216 18.6169C10.9233 18.7938 10.8062 18.9807 10.6642 19.1693C10.2084 19.7777 9.68743 20.1722 9.27905 20.4223C8.99756 20.5613 8.74734 20.6136 8.58024 20.6371C8.41045 20.6597 7.9422 20.6994 7.41138 20.4791C7.17368 20.3798 7.00747 20.2444 6.91096 20.1524L6.73224 19.9718C6.73224 19.9718 6.55351 19.4302 5.92798 18.7983C5.92798 18.7983 5.92798 18.1665 5.6599 18.1665C5.6599 18.1665 5.30245 18.2567 5.21309 18.7983L4.4982 18.347C4.4982 18.347 3.24713 16.6319 2.80032 16.5416C2.80032 16.5416 2.35351 16.3611 2.53224 17.0832C2.53224 17.0832 1.54926 16 1.9067 17.354C1.9067 17.354 1.54926 17.1735 1.72798 17.8957C1.72798 17.8957 2.71096 19.3399 2.88968 19.4302C2.88968 19.4302 2.17479 18.9789 1.9067 18.7081C1.879 18.6801 1.79947 18.6106 1.71189 18.625C1.63237 18.6386 1.56623 18.7189 1.54926 18.7983C1.52334 18.9157 1.60466 19.024 1.63862 19.0691C1.88526 19.3995 3.21943 20.4241 3.33649 20.5134C3.33649 20.5134 4.4982 21.7772 5.30245 21.6869C5.71798 22.0769 6.15675 22.4722 6.62053 22.8712C7.15939 23.3352 7.69019 23.7676 8.20671 24.1693C8.38632 24.2559 8.71964 24.3886 9.15573 24.395C9.62845 24.4022 9.98947 24.2577 10.1727 24.1693C13.3307 21.8918 14.2833 21.1254 14.2386 21.055C14.2386 21.0541 14.235 21.0496 14.235 21.0487C14.2511 21.0207 15.6863 21.8322 16.2046 23.402C15.5871 24.5249 14.9687 25.8654 14.462 27.4189C14.1466 28.3857 13.5782 30.3445 13.3772 32.9144C13.2476 34.5727 13.3039 36.0558 13.4344 37.3033C13.4531 38.3269 13.4111 39.4318 13.3343 40.6089C13.211 42.4702 12.9429 44.7504 12.362 46.4203C12.0412 47.1127 11.5569 48.2862 11.245 49.8054C10.6034 52.9251 11.3022 54.5029 10.6642 57.433C10.4676 58.3339 10.0717 59.7015 9.17002 61.3055C9.17002 61.3055 8.60883 62.3978 8.60883 62.488C8.60883 62.5494 8.48373 63.5767 9.00024 63.8809C9.36662 64.0966 9.85811 63.8484 10.2173 63.6615C10.6561 63.4341 11.5515 62.8609 12.228 61.45C12.3602 60.9246 12.4836 60.3514 12.5854 59.7349C12.6945 59.0759 12.765 58.4567 12.8088 57.8844C12.8088 57.8844 16.2939 50.8435 16.2046 48.4062C16.8024 47.5613 17.6138 46.2723 18.3046 44.5698C18.8327 43.2682 18.9319 42.6092 19.4663 41.2299C19.8622 40.2072 20.4966 38.79 21.5216 37.1679C22.9425 39.458 24.3338 41.0223 25.3642 42.0423C26.0004 42.6724 26.5026 43.0976 27.2408 43.938C28.5356 45.4111 29.3693 46.8094 29.8769 47.7744C29.8769 47.7744 30.3237 51.9267 31.6642 53.4612L33.8088 57.8844C34.085 58.7582 34.043 59.2565 33.9429 59.5543C33.9188 59.6265 33.8339 59.8558 33.7642 60.1862C33.7347 60.3252 33.6855 60.5581 33.6748 60.8181C33.665 61.0492 33.681 61.4319 33.8535 61.9013C34.5246 62.1676 35.5353 62.5106 36.8025 62.7137C37.5209 62.8293 40.1571 63.2481 40.3769 62.6234C40.502 62.2669 39.7952 61.7 39.4833 61.45C38.6933 60.8163 38.1393 60.8416 37.1599 60.1862C36.7533 59.9145 36.453 59.6455 36.2663 59.4641C35.697 56.5484 35.2485 54.2385 35.1493 53.732C35.1225 53.5957 35.0536 53.2762 35.0027 52.8447C34.9384 52.3031 34.9455 51.9303 34.883 51.3724C34.7543 50.2369 34.3146 48.6129 33.8991 47.2328C33.0287 44.3415 33.3084 44.6231 32.6927 42.7645C32.3192 41.6361 31.733 40.0709 30.8161 38.2511L29.5204 34.7758L29.5195 34.7749Z" fill="#E25973"/>
<path d="M30.8745 19.1368C30.8745 19.1368 31.7681 20.4006 31.6788 20.5811C31.5894 20.7617 30.0703 21.213 30.0703 21.213C30.0703 21.213 29.8915 19.7687 30.8745 19.1368Z" fill="white"/>
</svg>
